<?xml version="1.0" encoding="UTF-8" standalone="no"?>
<!-- Generator: Adobe Illustrator 19.0.0, SVG Export Plug-In . SVG Version: 6.00 Build 0)  -->

<svg
   xmlns:dc="http://purl.org/dc/elements/1.1/"
   xmlns:cc="http://creativecommons.org/ns#"
   xmlns:rdf="http://www.w3.org/1999/02/22-rdf-syntax-ns#"
   xmlns:svg="http://www.w3.org/2000/svg"
   xmlns="http://www.w3.org/2000/svg"
   xmlns:sodipodi="http://sodipodi.sourceforge.net/DTD/sodipodi-0.dtd"
   xmlns:inkscape="http://www.inkscape.org/namespaces/inkscape"
   version="1.1"
   id="Layer_1"
   x="0px"
   y="0px"
   viewBox="0 0 512 512"
   style="enable-background:new 0 0 512 512;"
   xml:space="preserve"
   sodipodi:docname="padlockclose.svg"
   inkscape:version="0.92.5 (2060ec1f9f, 2020-04-08)"><metadata
   id="metadata3851"><rdf:RDF><cc:Work
       rdf:about=""><dc:format>image/svg+xml</dc:format><dc:type
         rdf:resource="http://purl.org/dc/dcmitype/StillImage" /><dc:title></dc:title></cc:Work></rdf:RDF></metadata><defs
   id="defs3849" /><sodipodi:namedview
   pagecolor="#ffffff"
   bordercolor="#666666"
   borderopacity="1"
   objecttolerance="10"
   gridtolerance="10"
   guidetolerance="10"
   inkscape:pageopacity="0"
   inkscape:pageshadow="2"
   inkscape:window-width="1366"
   inkscape:window-height="731"
   id="namedview3847"
   showgrid="false"
   inkscape:zoom="1.0273438"
   inkscape:cx="256"
   inkscape:cy="256"
   inkscape:window-x="0"
   inkscape:window-y="0"
   inkscape:window-maximized="1"
   inkscape:current-layer="Layer_1" />
<g
   id="g3814">
	<g
   id="g3812">
		<path
   d="M394.667,214.421v-75.755C394.667,62.208,332.459,0,256,0S117.333,62.208,117.333,138.667v75.755    c-24.32,4.949-42.667,26.496-42.667,52.245v192C74.667,488.064,98.581,512,128,512h256c29.419,0,53.333-23.936,53.333-53.333v-192    C437.333,240.917,418.987,219.371,394.667,214.421z M279.659,378.24l8.235,57.579c0.448,3.072-0.469,6.165-2.496,8.491    c-2.027,2.325-4.971,3.691-8.064,3.691h-42.667c-3.093,0-6.037-1.344-8.064-3.669s-2.944-5.44-2.496-8.491l8.235-57.579    c-17.835-8.917-29.675-27.328-29.675-47.595c0-29.397,23.915-53.333,53.333-53.333s53.333,23.936,53.333,53.333    C309.333,350.933,297.493,369.344,279.659,378.24z M330.667,213.333H181.333v-74.667C181.333,97.493,214.827,64,256,64    s74.667,33.493,74.667,74.667V213.333z"
   id="path3810" />
	</g>
</g>
<g
   id="g3816">
</g>
<g
   id="g3818">
</g>
<g
   id="g3820">
</g>
<g
   id="g3822">
</g>
<g
   id="g3824">
</g>
<g
   id="g3826">
</g>
<g
   id="g3828">
</g>
<g
   id="g3830">
</g>
<g
   id="g3832">
</g>
<g
   id="g3834">
</g>
<g
   id="g3836">
</g>
<g
   id="g3838">
</g>
<g
   id="g3840">
</g>
<g
   id="g3842">
</g>
<g
   id="g3844">
</g>
<path
   style="fill:#ff0000;stroke-width:0.97338402"
   d="m 117.29278,510.48144 c -13.94115,-2.66774 -29.9966,-15.06855 -36.345524,-28.07231 -6.08738,-12.46808 -5.962883,-9.96836 -5.962883,-119.72624 0,-109.50573 -0.106528,-107.32995 5.848735,-119.45752 5.799626,-11.81063 17.921187,-22.3244 30.604442,-26.54512 l 6.19613,-2.06194 0.40679,-47.39737 c 0.37739,-43.9722 0.5559,-48.04623 2.47023,-56.37638 6.02918,-26.235651 17.9015,-48.661001 35.5169,-67.087038 19.4635,-20.359172 42.54981,-33.558166 69.94777,-39.9908079 9.87972,-2.3196137 12.99282,-2.5964959 29.53794,-2.6271277 20.13052,-0.03727 27.15282,0.9847113 43.55229,6.3383269 20.85189,6.8071097 37.78844,17.3826867 54.33416,33.9275077 19.94523,19.944158 31.87005,41.849859 38.13489,70.053199 1.92286,8.65635 2.10203,12.75999 2.45331,56.1902 l 0.37897,46.85186 5.87027,2.0044 c 17.95434,6.13051 31.48048,21.28351 35.34152,39.59226 2.14455,10.1693 2.14455,203.0018 0,213.1711 -3.80417,18.03907 -16.23883,32.26608 -34.37055,39.32471 l -6.50095,2.5308 -136.27376,0.14441 c -83.35125,0.0883 -138.16385,-0.21728 -141.14068,-0.78692 z m 167.99007,-65.80631 c 3.7005,-4.14374 3.68285,-4.7746 -1.05471,-37.70327 -2.14145,-14.8842 -3.89354,-27.39241 -3.89354,-27.79601 0,-0.4036 1.8616,-1.82636 4.13688,-3.16167 6.1015,-3.58081 15.6326,-14.00317 19.11575,-20.90324 10.63873,-21.07522 6.75776,-45.8172 -9.78099,-62.35596 -20.85814,-20.85814 -54.75434,-20.85814 -75.61248,0 -16.8458,16.8458 -20.53527,41.80081 -9.33205,63.12057 3.77762,7.18883 12.27005,16.34354 18.66681,20.12253 2.27528,1.34417 4.13688,2.77417 4.13688,3.17777 0,0.4036 -1.75209,12.91181 -3.89354,27.79601 -2.14144,14.8842 -3.89353,28.68903 -3.89353,30.67739 0,3.94516 2.79998,8.34061 6.21809,9.76124 1.13062,0.4699 13.37136,0.76192 27.20164,0.64894 l 25.14597,-0.20544 z m 45.66772,-272.32986 c 0,-33.9292 -0.27787,-42.7652 -1.53818,-48.91254 C 324.01327,97.09788 305.35467,76.298488 278.87452,67.096436 271.65786,64.588586 269.9823,64.390368 256,64.390368 c -13.99605,0 -15.65076,0.196245 -22.87452,2.712864 -20.13859,7.01589 -36.11411,20.939545 -44.73186,38.986568 -6.707,14.04561 -6.69007,13.8948 -7.09021,63.13301 l -0.3619,44.53232 h 75.00454 75.00452 z"
   id="path3853"
   inkscape:connector-curvature="0" /></svg>