<?xml version="1.0" encoding="UTF-8" standalone="no"?>
<!-- Generator: Adobe Illustrator 19.0.0, SVG Export Plug-In . SVG Version: 6.00 Build 0)  -->

<svg
   xmlns:dc="http://purl.org/dc/elements/1.1/"
   xmlns:cc="http://creativecommons.org/ns#"
   xmlns:rdf="http://www.w3.org/1999/02/22-rdf-syntax-ns#"
   xmlns:svg="http://www.w3.org/2000/svg"
   xmlns="http://www.w3.org/2000/svg"
   xmlns:sodipodi="http://sodipodi.sourceforge.net/DTD/sodipodi-0.dtd"
   xmlns:inkscape="http://www.inkscape.org/namespaces/inkscape"
   version="1.1"
   id="Layer_1"
   x="0px"
   y="0px"
   viewBox="0 0 512 512"
   style="enable-background:new 0 0 512 512;"
   xml:space="preserve"
   sodipodi:docname="padlock.svg"
   inkscape:version="0.92.5 (2060ec1f9f, 2020-04-08)"><metadata
   id="metadata4012"><rdf:RDF><cc:Work
       rdf:about=""><dc:format>image/svg+xml</dc:format><dc:type
         rdf:resource="http://purl.org/dc/dcmitype/StillImage" /><dc:title></dc:title></cc:Work></rdf:RDF></metadata><defs
   id="defs4010" /><sodipodi:namedview
   pagecolor="#ffffff"
   bordercolor="#666666"
   borderopacity="1"
   objecttolerance="10"
   gridtolerance="10"
   guidetolerance="10"
   inkscape:pageopacity="0"
   inkscape:pageshadow="2"
   inkscape:window-width="1366"
   inkscape:window-height="731"
   id="namedview4008"
   showgrid="false"
   inkscape:zoom="0.4609375"
   inkscape:cx="256"
   inkscape:cy="256"
   inkscape:window-x="0"
   inkscape:window-y="0"
   inkscape:window-maximized="1"
   inkscape:current-layer="Layer_1" />
<g
   id="g3975">
	<g
   id="g3973">
		<path
   d="M384,213.333H181.333v-74.667C181.333,97.493,214.827,64,256,64s74.667,33.493,74.667,74.667v42.667    c0,5.888,4.779,10.667,10.667,10.667H384c5.888,0,10.667-4.779,10.667-10.667v-42.667C394.667,62.208,332.459,0,256,0    S117.333,62.208,117.333,138.667v75.755c-24.32,4.949-42.667,26.517-42.667,52.245v192C74.667,488.064,98.581,512,128,512h256    c29.419,0,53.333-23.936,53.333-53.333v-192C437.333,237.269,413.419,213.333,384,213.333z M279.659,378.24l8.235,57.579    c0.448,3.072-0.469,6.165-2.496,8.491c-2.027,2.325-4.971,3.691-8.064,3.691h-42.667c-3.093,0-6.037-1.344-8.064-3.669    s-2.944-5.44-2.496-8.491l8.235-57.579c-17.835-8.917-29.675-27.328-29.675-47.595c0-29.397,23.915-53.333,53.333-53.333    s53.333,23.936,53.333,53.333C309.333,350.933,297.493,369.344,279.659,378.24z"
   id="path3971" />
	</g>
</g>
<g
   id="g3977">
</g>
<g
   id="g3979">
</g>
<g
   id="g3981">
</g>
<g
   id="g3983">
</g>
<g
   id="g3985">
</g>
<g
   id="g3987">
</g>
<g
   id="g3989">
</g>
<g
   id="g3991">
</g>
<g
   id="g3993">
</g>
<g
   id="g3995">
</g>
<g
   id="g3997">
</g>
<g
   id="g3999">
</g>
<g
   id="g4001">
</g>
<g
   id="g4003">
</g>
<g
   id="g4005">
</g>
<path
   style="fill:#00ff00;stroke-width:2.16949153"
   d="M 114.96901,509.13647 C 98.085827,503.90365 82.94772,489.56993 78.450024,474.55796 76.688375,468.6781 75.938568,434.62921 75.953397,361.18558 l 0.0212,-104.96863 5.128142,-10.84746 c 6.266307,-13.25501 14.353501,-21.10742 27.914211,-27.10385 l 10.30508,-4.55682 v -47.85651 c 0,-54.86887 1.64604,-64.43332 15.76854,-91.624353 38.6711,-74.45620706 136.63768,-95.719864 204.59934,-44.408311 22.91085,17.297868 42.19733,46.533411 49.63641,75.241684 2.63064,10.152 3.3165,21.80047 2.86312,48.62572 l -0.59622,35.27566 -26.81359,0.61105 c -17.91627,0.4083 -27.81468,-0.21977 -29.83051,-1.89276 -2.28842,-1.89922 -3.01692,-9.20322 -3.01692,-30.24827 0,-39.15168 -5.81206,-56.14713 -25.63992,-74.975393 -25.89095,-24.585697 -74.69361,-24.585697 -100.58456,0 C 184.02109,103.05067 180.0678,116.81422 180.0678,171.7238 v 42.03553 l 109.01695,0.61864 c 106.96252,0.60698 109.18048,0.70688 117.69491,5.30131 11.36035,6.1301 19.32499,14.73814 24.77362,26.77496 4.24825,9.38502 4.42108,13.82356 4.46687,114.73134 0.0334,73.51468 -0.70682,107.48683 -2.47018,113.37238 -3.26027,10.88184 -15.09402,24.60371 -26.46105,30.68297 -8.98681,4.80631 -8.99373,4.80655 -147.83468,5.19372 -76.3661,0.21304 -141.29446,-0.37122 -144.28523,-1.29818 z m 171.55272,-64.35311 c 2.36518,-2.84989 2.11306,-8.76503 -1.48311,-34.79496 l -4.33273,-31.36136 6.87087,-4.24644 c 26.48617,-16.36935 29.70033,-60.37996 6.04565,-82.78152 -25.82881,-24.46052 -69.56852,-17.19025 -85.73523,14.25063 -11.88429,23.11248 -3.98544,55.84792 16.53606,68.53089 l 6.87087,4.24644 -4.33273,31.36136 c -3.59617,26.02993 -3.8483,31.94507 -1.48311,34.79496 2.32661,2.8034 7.92856,3.43359 30.52173,3.43359 22.59317,0 28.19512,-0.63019 30.52173,-3.43359 z"
   id="path4014"
   inkscape:connector-curvature="0" /></svg>